{"title":"Office Scandal {2013}_ with audible sound_mpeg4_{somnath2003}","uid":8500465,"size":139703780,"categoryP":"porn","categoryS":"movies","magnet":"?xt=urn:btih:12f7c717e513939e5d034269d5f9f3902135d8c0&amp;dn=Office+Scandal+%7B2013%7D_+with+audible+sound_mpeg4_%7Bsomnath2003%7D&amp;tr=udp%3A%2F%2Ftracker.openbittorrent.com%3A80&amp;tr=udp%3A%2F%2Fopen.demonii.com%3A1337&amp;tr=udp%3A%2F%2Ftracker.coppersurfer.tk%3A6969&amp;tr=udp%3A%2F%2Fexodus.desync.com%3A6969","seeders":0,"leechers":1,"uploader":"somnath2003","files":1,"time":1369282184,"description":"General:-\n\n\n[code]Complete name                            : Office Scandal\nFormat                                   : MPEG-4\nFormat profile                           : Base Media\nCodec ID                                 : isom\nFile size                                : 133 MiB\nDuration                                 : 24mn 52s\nOverall bit rate mode                    : Variable\nOverall bit rate                         : 749 Kbps\nWriting application                      : Lavf52.93.0[/code]\n\nVideo:-\n\n[code]\nID                                       : 1\nFormat                                   : AVC\nFormat/Info                              : Advanced Video Codec\nFormat profile                           : &lt;a class=&quot;__cf_email__&quot; href=&quot;/cdn-cgi/l/email-protection&quot; data-cfemail=&quot;1b567a72755b5728352b&quot;&gt;[email&amp;#160;protected]&lt;/a&gt;&lt;script cf-hash='f9e31' type=&quot;text/javascript&quot;&gt;\n/* &lt;![CDATA[ */!function(){try{var t=&quot;currentScript&quot;in document?document.currentScript:function(){for(var t=document.getElementsByTagName(&quot;script&quot;),e=t.length;e--;)if(t[e].getAttribute(&quot;cf-hash&quot;))return t[e]}();if(t&amp;&amp;t.previousSibling){var e,r,n,i,c=t.previousSibling,a=c.getAttribute(&quot;data-cfemail&quot;);if(a){for(e=&quot;&quot;,r=parseInt(a.substr(0,2),16),n=2;a.length-n;n+=2)i=parseInt(a.substr(n,2),16)^r,e+=String.fromCharCode(i);e=document.createTextNode(e),c.parentNode.replaceChild(e,c)}}}catch(u){}}();/* ]]&gt; */&lt;/script&gt;\nFormat settings, CABAC                   : Yes\nFormat settings, ReFrames                : 2 frames\nFormat settings, GOP                     : M=2, N=20\nCodec ID                                 : avc1\nCodec ID/Info                            : Advanced Video Coding\nDuration                                 : 24mn 52s\nSource duration                          : 24mn 51s\nSource_Duration_FirstFrame               : -49ms\nSource_Duration_LastFrame                : -49ms\nBit rate                                 : 681 Kbps\nWidth                                    : 640 pixels\nHeight                                   : 426 pixels\nDisplay aspect ratio                     : 16:9\nFrame rate mode                          : Constant\nFrame rate                               : 19.980 fps\nColor space                              : YUV\nChroma subsampling                       : 4:2:0\nBit depth                                : 8 bits\nScan type                                : Progressive\nBits/(Pixel*Frame)                       : 0.125\nStream size                              : 117 MiB (88%)\nSource stream size                       : 124 MiB (93%)\nWriting library                          : x264 core 107\nLanguage                                 : English[/code]\n\n\nAudio:-\n\n[code]ID                                       : 2\nFormat                                   : AAC\nFormat/Info                              : Advanced Audio Codec\nFormat profile                           : LC\nCodec ID                                 : 40\nDuration                                 : 24mn 51s\nBit rate mode                            : Variable\nBit rate                                 : 51.4 Kbps\nChannel(s)                               : 2 channels\nChannel positions                        : Front: L R\nSampling rate                            : 44.1 KHz\nCompression mode                         : Lossy\nStream size                              : 9.13 MiB (7%)\nLanguage                                 : English\nTagged date                              : UTC 2013-03-11 22:39:19[/code]\n\n\n[img]http://img844.imageshack.us/img844/5859/officescandal.jpg[/img]\n\n\n\nPlease Seed After Download\n\nDon't Forget to say Thanks and review...\n\n","torrent":{"xt":"urn:btih:12f7c717e513939e5d034269d5f9f3902135d8c0","amp;dn":"Office+Scandal+%7B2013%7D_+with+audible+sound_mpeg4_%7Bsomnath2003%7D","amp;tr":["udp%3A%2F%2Ftracker.openbittorrent.com%3A80","udp%3A%2F%2Fopen.demonii.com%3A1337","udp%3A%2F%2Ftracker.coppersurfer.tk%3A6969","udp%3A%2F%2Fexodus.desync.com%3A6969"],"infoHash":"12f7c717e513939e5d034269d5f9f3902135d8c0","infoHashBuffer":{"type":"Buffer","data":[18,247,199,23,229,19,147,158,93,3,66,105,213,249,243,144,33,53,216,192]},"announce":[],"urlList":[]}}